<svg xmlns="http://www.w3.org/2000/svg" width="940" height="560" viewBox="0 0 940 560" font-family="Helvetica, Arial, sans-serif">
  <rect width="940" height="560" fill="#ffffff"/>
  <text x="40" y="46" font-size="20" font-weight="700" fill="#1f3a5f">Diagrama PERT/CPM del supuesto: ruta crítica A → D → I</text>

  <defs>
    <marker id="arr" viewBox="0 0 10 10" refX="8" refY="5" markerWidth="7" markerHeight="7" orient="auto-start-reverse">
      <path d="M 0 0 L 10 5 L 0 10 z" fill="#5a7d99"/>
    </marker>
    <marker id="arrc" viewBox="0 0 10 10" refX="8" refY="5" markerWidth="6" markerHeight="6" orient="auto-start-reverse">
      <path d="M 0 0 L 10 5 L 0 10 z" fill="#b23b2e"/>
    </marker>
  </defs>

  <!-- Leyenda de notación -->
  <text x="810" y="24" font-size="10.5" fill="#4a5b68" text-anchor="middle">Notación del nodo</text>
  <g stroke="#9aa5ae" stroke-width="1" fill="#f2f5f8">
    <rect x="720" y="30" width="180" height="52"/>
  </g>
  <g stroke="#9aa5ae" stroke-width="1">
    <line x1="720" y1="56" x2="900" y2="56"/>
    <line x1="780" y1="30" x2="780" y2="82"/>
    <line x1="840" y1="30" x2="840" y2="82"/>
  </g>
  <g font-size="10.5" fill="#4a5b68" text-anchor="middle">
    <text x="750" y="47">ES</text><text x="810" y="47">Dur.</text><text x="870" y="47">EF</text>
    <text x="750" y="73">LS</text><text x="810" y="73">T / L</text><text x="870" y="73">LF</text>
  </g>

  <!-- Aristas normales -->
  <g stroke="#5a7d99" stroke-width="1.8" fill="none" marker-end="url(#arr)">
    <line x1="144" y1="280" x2="226" y2="146"/>
    <line x1="144" y1="280" x2="226" y2="414"/>
    <line x1="326" y1="140" x2="426" y2="114"/>
    <line x1="326" y1="140" x2="426" y2="204"/>
    <line x1="326" y1="280" x2="426" y2="316"/>
    <line x1="326" y1="420" x2="426" y2="324"/>
    <line x1="326" y1="420" x2="426" y2="400"/>
    <line x1="326" y1="420" x2="426" y2="476"/>
    <line x1="526" y1="110" x2="626" y2="156"/>
    <line x1="526" y1="320" x2="806" y2="302"/>
    <line x1="526" y1="400" x2="806" y2="306"/>
    <line x1="526" y1="480" x2="806" y2="310"/>
  </g>
  <!-- Aristas de la ruta crítica -->
  <g stroke="#b23b2e" stroke-width="3" fill="none" marker-end="url(#arrc)">
    <line x1="144" y1="280" x2="226" y2="280"/>
    <line x1="326" y1="280" x2="426" y2="216"/>
    <line x1="526" y1="210" x2="626" y2="166"/>
    <line x1="726" y1="160" x2="806" y2="294"/>
  </g>

  <!-- Nodos -->
  <!-- plantilla: rect x,cy-33 96x66; divisores; textos -->
  <g font-size="11" fill="#22303c">
    <!-- Inicio (crítico) -->
    <g>
      <rect x="48" y="247" width="96" height="66" rx="6" fill="#fbeae7" stroke="#b23b2e" stroke-width="2.2"/>
      <line x1="48" y1="269" x2="144" y2="269" stroke="#d08a80" stroke-width="1"/>
      <line x1="48" y1="291" x2="144" y2="291" stroke="#d08a80" stroke-width="1"/>
      <line x1="80" y1="247" x2="80" y2="269" stroke="#d08a80" stroke-width="1"/>
      <line x1="112" y1="247" x2="112" y2="269" stroke="#d08a80" stroke-width="1"/>
      <line x1="80" y1="291" x2="80" y2="313" stroke="#d08a80" stroke-width="1"/>
      <line x1="112" y1="291" x2="112" y2="313" stroke="#d08a80" stroke-width="1"/>
      <text x="64" y="263" text-anchor="middle">0</text><text x="96" y="263" text-anchor="middle">0</text><text x="128" y="263" text-anchor="middle">0</text>
      <text x="96" y="285" text-anchor="middle" font-size="13" font-weight="700">Inicio</text>
      <text x="64" y="307" text-anchor="middle">0</text><text x="96" y="307" text-anchor="middle" font-size="10.5">0/0</text><text x="128" y="307" text-anchor="middle">0</text>
    </g>
    <!-- B -->
    <g>
      <rect x="230" y="107" width="96" height="66" rx="6" fill="#dbe7f3" stroke="#5b87b0" stroke-width="1.5"/>
      <line x1="230" y1="129" x2="326" y2="129" stroke="#5b87b0" stroke-width="1"/>
      <line x1="230" y1="151" x2="326" y2="151" stroke="#5b87b0" stroke-width="1"/>
      <line x1="262" y1="107" x2="262" y2="129" stroke="#5b87b0" stroke-width="1"/>
      <line x1="294" y1="107" x2="294" y2="129" stroke="#5b87b0" stroke-width="1"/>
      <line x1="262" y1="151" x2="262" y2="173" stroke="#5b87b0" stroke-width="1"/>
      <line x1="294" y1="151" x2="294" y2="173" stroke="#5b87b0" stroke-width="1"/>
      <text x="246" y="123" text-anchor="middle">0</text><text x="278" y="123" text-anchor="middle">8</text><text x="310" y="123" text-anchor="middle">8</text>
      <text x="278" y="145" text-anchor="middle" font-size="13" font-weight="700">B</text>
      <text x="246" y="167" text-anchor="middle">1</text><text x="278" y="167" text-anchor="middle" font-size="10.5">1/0</text><text x="310" y="167" text-anchor="middle">9</text>
    </g>
    <!-- A (crítico) -->
    <g>
      <rect x="230" y="247" width="96" height="66" rx="6" fill="#fbeae7" stroke="#b23b2e" stroke-width="2.2"/>
      <line x1="230" y1="269" x2="326" y2="269" stroke="#d08a80" stroke-width="1"/>
      <line x1="230" y1="291" x2="326" y2="291" stroke="#d08a80" stroke-width="1"/>
      <line x1="262" y1="247" x2="262" y2="269" stroke="#d08a80" stroke-width="1"/>
      <line x1="294" y1="247" x2="294" y2="269" stroke="#d08a80" stroke-width="1"/>
      <line x1="262" y1="291" x2="262" y2="313" stroke="#d08a80" stroke-width="1"/>
      <line x1="294" y1="291" x2="294" y2="313" stroke="#d08a80" stroke-width="1"/>
      <text x="246" y="263" text-anchor="middle">0</text><text x="278" y="263" text-anchor="middle">10</text><text x="310" y="263" text-anchor="middle">10</text>
      <text x="278" y="285" text-anchor="middle" font-size="13" font-weight="700">A</text>
      <text x="246" y="307" text-anchor="middle">0</text><text x="278" y="307" text-anchor="middle" font-size="10.5">0/0</text><text x="310" y="307" text-anchor="middle">10</text>
    </g>
    <!-- E -->
    <g>
      <rect x="230" y="387" width="96" height="66" rx="6" fill="#dbe7f3" stroke="#5b87b0" stroke-width="1.5"/>
      <line x1="230" y1="409" x2="326" y2="409" stroke="#5b87b0" stroke-width="1"/>
      <line x1="230" y1="431" x2="326" y2="431" stroke="#5b87b0" stroke-width="1"/>
      <line x1="262" y1="387" x2="262" y2="409" stroke="#5b87b0" stroke-width="1"/>
      <line x1="294" y1="387" x2="294" y2="409" stroke="#5b87b0" stroke-width="1"/>
      <line x1="262" y1="431" x2="262" y2="453" stroke="#5b87b0" stroke-width="1"/>
      <line x1="294" y1="431" x2="294" y2="453" stroke="#5b87b0" stroke-width="1"/>
      <text x="246" y="403" text-anchor="middle">0</text><text x="278" y="403" text-anchor="middle">12</text><text x="310" y="403" text-anchor="middle">12</text>
      <text x="278" y="425" text-anchor="middle" font-size="13" font-weight="700">E</text>
      <text x="246" y="447" text-anchor="middle">1</text><text x="278" y="447" text-anchor="middle" font-size="10.5">1/0</text><text x="310" y="447" text-anchor="middle">13</text>
    </g>
    <!-- C -->
    <g>
      <rect x="430" y="77" width="96" height="66" rx="6" fill="#dbe7f3" stroke="#5b87b0" stroke-width="1.5"/>
      <line x1="430" y1="99" x2="526" y2="99" stroke="#5b87b0" stroke-width="1"/>
      <line x1="430" y1="121" x2="526" y2="121" stroke="#5b87b0" stroke-width="1"/>
      <line x1="462" y1="77" x2="462" y2="99" stroke="#5b87b0" stroke-width="1"/>
      <line x1="494" y1="77" x2="494" y2="99" stroke="#5b87b0" stroke-width="1"/>
      <line x1="462" y1="121" x2="462" y2="143" stroke="#5b87b0" stroke-width="1"/>
      <line x1="494" y1="121" x2="494" y2="143" stroke="#5b87b0" stroke-width="1"/>
      <text x="446" y="93" text-anchor="middle">8</text><text x="478" y="93" text-anchor="middle">5</text><text x="510" y="93" text-anchor="middle">13</text>
      <text x="478" y="115" text-anchor="middle" font-size="13" font-weight="700">C</text>
      <text x="446" y="137" text-anchor="middle">9</text><text x="478" y="137" text-anchor="middle" font-size="10.5">1/1</text><text x="510" y="137" text-anchor="middle">14</text>
    </g>
    <!-- D (crítico) -->
    <g>
      <rect x="430" y="177" width="96" height="66" rx="6" fill="#fbeae7" stroke="#b23b2e" stroke-width="2.2"/>
      <line x1="430" y1="199" x2="526" y2="199" stroke="#d08a80" stroke-width="1"/>
      <line x1="430" y1="221" x2="526" y2="221" stroke="#d08a80" stroke-width="1"/>
      <line x1="462" y1="177" x2="462" y2="199" stroke="#d08a80" stroke-width="1"/>
      <line x1="494" y1="177" x2="494" y2="199" stroke="#d08a80" stroke-width="1"/>
      <line x1="462" y1="221" x2="462" y2="243" stroke="#d08a80" stroke-width="1"/>
      <line x1="494" y1="221" x2="494" y2="243" stroke="#d08a80" stroke-width="1"/>
      <text x="446" y="193" text-anchor="middle">10</text><text x="478" y="193" text-anchor="middle">4</text><text x="510" y="193" text-anchor="middle">14</text>
      <text x="478" y="215" text-anchor="middle" font-size="13" font-weight="700">D</text>
      <text x="446" y="237" text-anchor="middle">10</text><text x="478" y="237" text-anchor="middle" font-size="10.5">0/0</text><text x="510" y="237" text-anchor="middle">14</text>
    </g>
    <!-- G -->
    <g>
      <rect x="430" y="287" width="96" height="66" rx="6" fill="#dbe7f3" stroke="#5b87b0" stroke-width="1.5"/>
      <line x1="430" y1="309" x2="526" y2="309" stroke="#5b87b0" stroke-width="1"/>
      <line x1="430" y1="331" x2="526" y2="331" stroke="#5b87b0" stroke-width="1"/>
      <line x1="462" y1="287" x2="462" y2="309" stroke="#5b87b0" stroke-width="1"/>
      <line x1="494" y1="287" x2="494" y2="309" stroke="#5b87b0" stroke-width="1"/>
      <line x1="462" y1="331" x2="462" y2="353" stroke="#5b87b0" stroke-width="1"/>
      <line x1="494" y1="331" x2="494" y2="353" stroke="#5b87b0" stroke-width="1"/>
      <text x="446" y="303" text-anchor="middle">12</text><text x="478" y="303" text-anchor="middle">7</text><text x="510" y="303" text-anchor="middle">19</text>
      <text x="478" y="325" text-anchor="middle" font-size="13" font-weight="700">G</text>
      <text x="446" y="347" text-anchor="middle">15</text><text x="478" y="347" text-anchor="middle" font-size="10.5">3/3</text><text x="510" y="347" text-anchor="middle">22</text>
    </g>
    <!-- F -->
    <g>
      <rect x="430" y="367" width="96" height="66" rx="6" fill="#dbe7f3" stroke="#5b87b0" stroke-width="1.5"/>
      <line x1="430" y1="389" x2="526" y2="389" stroke="#5b87b0" stroke-width="1"/>
      <line x1="430" y1="411" x2="526" y2="411" stroke="#5b87b0" stroke-width="1"/>
      <line x1="462" y1="367" x2="462" y2="389" stroke="#5b87b0" stroke-width="1"/>
      <line x1="494" y1="367" x2="494" y2="389" stroke="#5b87b0" stroke-width="1"/>
      <line x1="462" y1="411" x2="462" y2="433" stroke="#5b87b0" stroke-width="1"/>
      <line x1="494" y1="411" x2="494" y2="433" stroke="#5b87b0" stroke-width="1"/>
      <text x="446" y="383" text-anchor="middle">12</text><text x="478" y="383" text-anchor="middle">6</text><text x="510" y="383" text-anchor="middle">18</text>
      <text x="478" y="405" text-anchor="middle" font-size="13" font-weight="700">F</text>
      <text x="446" y="427" text-anchor="middle">16</text><text x="478" y="427" text-anchor="middle" font-size="10.5">4/4</text><text x="510" y="427" text-anchor="middle">22</text>
    </g>
    <!-- H -->
    <g>
      <rect x="430" y="447" width="96" height="66" rx="6" fill="#dbe7f3" stroke="#5b87b0" stroke-width="1.5"/>
      <line x1="430" y1="469" x2="526" y2="469" stroke="#5b87b0" stroke-width="1"/>
      <line x1="430" y1="491" x2="526" y2="491" stroke="#5b87b0" stroke-width="1"/>
      <line x1="462" y1="447" x2="462" y2="469" stroke="#5b87b0" stroke-width="1"/>
      <line x1="494" y1="447" x2="494" y2="469" stroke="#5b87b0" stroke-width="1"/>
      <line x1="462" y1="491" x2="462" y2="513" stroke="#5b87b0" stroke-width="1"/>
      <line x1="494" y1="491" x2="494" y2="513" stroke="#5b87b0" stroke-width="1"/>
      <text x="446" y="463" text-anchor="middle">12</text><text x="478" y="463" text-anchor="middle">9</text><text x="510" y="463" text-anchor="middle">21</text>
      <text x="478" y="485" text-anchor="middle" font-size="13" font-weight="700">H</text>
      <text x="446" y="507" text-anchor="middle">13</text><text x="478" y="507" text-anchor="middle" font-size="10.5">1/1</text><text x="510" y="507" text-anchor="middle">22</text>
    </g>
    <!-- I (crítico) -->
    <g>
      <rect x="630" y="127" width="96" height="66" rx="6" fill="#fbeae7" stroke="#b23b2e" stroke-width="2.2"/>
      <line x1="630" y1="149" x2="726" y2="149" stroke="#d08a80" stroke-width="1"/>
      <line x1="630" y1="171" x2="726" y2="171" stroke="#d08a80" stroke-width="1"/>
      <line x1="662" y1="127" x2="662" y2="149" stroke="#d08a80" stroke-width="1"/>
      <line x1="694" y1="127" x2="694" y2="149" stroke="#d08a80" stroke-width="1"/>
      <line x1="662" y1="171" x2="662" y2="193" stroke="#d08a80" stroke-width="1"/>
      <line x1="694" y1="171" x2="694" y2="193" stroke="#d08a80" stroke-width="1"/>
      <text x="646" y="143" text-anchor="middle">14</text><text x="678" y="143" text-anchor="middle">8</text><text x="710" y="143" text-anchor="middle">22</text>
      <text x="678" y="165" text-anchor="middle" font-size="13" font-weight="700">I</text>
      <text x="646" y="187" text-anchor="middle">14</text><text x="678" y="187" text-anchor="middle" font-size="10.5">0/0</text><text x="710" y="187" text-anchor="middle">22</text>
    </g>
    <!-- Final (crítico) -->
    <g>
      <rect x="810" y="267" width="96" height="66" rx="6" fill="#fbeae7" stroke="#b23b2e" stroke-width="2.2"/>
      <line x1="810" y1="289" x2="906" y2="289" stroke="#d08a80" stroke-width="1"/>
      <line x1="810" y1="311" x2="906" y2="311" stroke="#d08a80" stroke-width="1"/>
      <line x1="842" y1="267" x2="842" y2="289" stroke="#d08a80" stroke-width="1"/>
      <line x1="874" y1="267" x2="874" y2="289" stroke="#d08a80" stroke-width="1"/>
      <line x1="842" y1="311" x2="842" y2="333" stroke="#d08a80" stroke-width="1"/>
      <line x1="874" y1="311" x2="874" y2="333" stroke="#d08a80" stroke-width="1"/>
      <text x="826" y="283" text-anchor="middle">22</text><text x="858" y="283" text-anchor="middle">0</text><text x="890" y="283" text-anchor="middle">22</text>
      <text x="858" y="305" text-anchor="middle" font-size="13" font-weight="700">Fin</text>
      <text x="826" y="329" text-anchor="middle">22</text><text x="858" y="329" text-anchor="middle" font-size="10.5">0/0</text><text x="890" y="329" text-anchor="middle">22</text>
    </g>
  </g>

  <!-- Leyenda ruta crítica -->
  <line x1="48" y1="540" x2="92" y2="540" stroke="#b23b2e" stroke-width="3"/>
  <text x="100" y="544" font-size="12" fill="#4a5b68">ruta crítica (holgura total 0) · duración: 22 u.t. · T/L: holgura total / holgura libre</text>

  <text x="900" y="548" font-size="12" fill="#8a949e" text-anchor="end">Elaboración propia.</text>
</svg>
