<svg xmlns="http://www.w3.org/2000/svg" width="940" height="980" viewBox="0 0 940 980" font-family="Helvetica, Arial, sans-serif">
<rect width="940" height="980" fill="#ffffff"/>
<text x="20" y="42" font-size="19" font-weight="700" fill="#1f3a5f">Matriz de procesos de la Guía del PMBOK (6.ª ed.): 49 procesos, 10 áreas y 5 grupos</text>
<rect x="20" y="62" width="900" height="46" fill="#2e5f8a"/>
<text x="95.0" y="90" font-size="12" font-weight="700" fill="#ffffff" text-anchor="middle">Áreas ↓ \ Grupos →</text>
<text x="230.0" y="90" font-size="12" font-weight="700" fill="#ffffff" text-anchor="middle">Iniciar</text>
<text x="392.5" y="90" font-size="12" font-weight="700" fill="#ffffff" text-anchor="middle">Planificar</text>
<text x="570.0" y="90" font-size="12" font-weight="700" fill="#ffffff" text-anchor="middle">Ejecutar</text>
<text x="730.0" y="82" font-size="12" font-weight="700" fill="#ffffff" text-anchor="middle">Monitorizar</text>
<text x="730.0" y="98" font-size="12" font-weight="700" fill="#ffffff" text-anchor="middle">y controlar</text>
<text x="867.5" y="90" font-size="12" font-weight="700" fill="#ffffff" text-anchor="middle">Cerrar</text>
<rect x="20" y="108" width="900" height="77.0" fill="#f2f5f8"/>
<rect x="20" y="108" width="150" height="77.0" fill="#dbe7f3"/>
<text x="95" y="143.5" font-size="11.5" font-weight="700" fill="#1f3a5f" text-anchor="middle">Gestión de la</text>
<text x="95" y="158.5" font-size="11.5" font-weight="700" fill="#1f3a5f" text-anchor="middle">Integración</text>
<text x="178" y="127" font-size="10.2" fill="#22303c">4.1 Acta de</text>
<text x="178" y="140.5" font-size="10.2" fill="#22303c">constitución</text>
<text x="298" y="127" font-size="10.2" fill="#22303c">4.2 Plan para la</text>
<text x="298" y="140.5" font-size="10.2" fill="#22303c">dirección del proyecto</text>
<text x="503" y="127" font-size="10.2" fill="#22303c">4.3 Dirigir y gestionar</text>
<text x="503" y="140.5" font-size="10.2" fill="#22303c">el trabajo</text>
<text x="503" y="159.0" font-size="10.2" fill="#22303c">4.4 Gestionar el</text>
<text x="503" y="172.5" font-size="10.2" fill="#22303c">conocimiento</text>
<text x="653" y="127" font-size="10.2" fill="#22303c">4.5 Monitorizar y con-</text>
<text x="653" y="140.5" font-size="10.2" fill="#22303c">trolar el trabajo</text>
<text x="653" y="159.0" font-size="10.2" fill="#22303c">4.6 Control integrado</text>
<text x="653" y="172.5" font-size="10.2" fill="#22303c">de cambios</text>
<text x="823" y="127" font-size="10.2" fill="#22303c">4.7 Cerrar el</text>
<text x="823" y="140.5" font-size="10.2" fill="#22303c">proyecto o fase</text>
<rect x="20" y="185.0" width="900" height="100.5" fill="#ffffff"/>
<rect x="20" y="185.0" width="150" height="100.5" fill="#dbe7f3"/>
<text x="95" y="232.25" font-size="11.5" font-weight="700" fill="#1f3a5f" text-anchor="middle">Gestión del</text>
<text x="95" y="247.25" font-size="11.5" font-weight="700" fill="#1f3a5f" text-anchor="middle">Alcance</text>
<text x="298" y="204.0" font-size="10.2" fill="#22303c">5.1 Planificar la gestión</text>
<text x="298" y="217.5" font-size="10.2" fill="#22303c">del alcance</text>
<text x="298" y="236.0" font-size="10.2" fill="#22303c">5.2 Recopilar requisitos</text>
<text x="298" y="254.5" font-size="10.2" fill="#22303c">5.3 Definir el alcance</text>
<text x="298" y="273.0" font-size="10.2" fill="#22303c">5.4 Crear la EDT (WBS)</text>
<text x="653" y="204.0" font-size="10.2" fill="#22303c">5.5 Validar el alcance</text>
<text x="653" y="222.5" font-size="10.2" fill="#22303c">5.6 Controlar el alcance</text>
<rect x="20" y="285.5" width="900" height="146.0" fill="#f2f5f8"/>
<rect x="20" y="285.5" width="150" height="146.0" fill="#dbe7f3"/>
<text x="95" y="355.5" font-size="11.5" font-weight="700" fill="#1f3a5f" text-anchor="middle">Gestión del</text>
<text x="95" y="370.5" font-size="11.5" font-weight="700" fill="#1f3a5f" text-anchor="middle">Cronograma</text>
<text x="298" y="304.5" font-size="10.2" fill="#22303c">6.1 Planificar la gestión</text>
<text x="298" y="318.0" font-size="10.2" fill="#22303c">del cronograma</text>
<text x="298" y="336.5" font-size="10.2" fill="#22303c">6.2 Definir las actividades</text>
<text x="298" y="355.0" font-size="10.2" fill="#22303c">6.3 Secuenciar las</text>
<text x="298" y="368.5" font-size="10.2" fill="#22303c">actividades</text>
<text x="298" y="387.0" font-size="10.2" fill="#22303c">6.4 Estimar las duraciones</text>
<text x="298" y="405.5" font-size="10.2" fill="#22303c">6.5 Desarrollar el</text>
<text x="298" y="419.0" font-size="10.2" fill="#22303c">cronograma</text>
<text x="653" y="304.5" font-size="10.2" fill="#22303c">6.6 Controlar el</text>
<text x="653" y="318.0" font-size="10.2" fill="#22303c">cronograma</text>
<rect x="20" y="431.5" width="900" height="95.5" fill="#ffffff"/>
<rect x="20" y="431.5" width="150" height="95.5" fill="#dbe7f3"/>
<text x="95" y="476.25" font-size="11.5" font-weight="700" fill="#1f3a5f" text-anchor="middle">Gestión de los</text>
<text x="95" y="491.25" font-size="11.5" font-weight="700" fill="#1f3a5f" text-anchor="middle">Costes</text>
<text x="298" y="450.5" font-size="10.2" fill="#22303c">7.1 Planificar la gestión</text>
<text x="298" y="464.0" font-size="10.2" fill="#22303c">de los costes</text>
<text x="298" y="482.5" font-size="10.2" fill="#22303c">7.2 Estimar los costes</text>
<text x="298" y="501.0" font-size="10.2" fill="#22303c">7.3 Determinar el</text>
<text x="298" y="514.5" font-size="10.2" fill="#22303c">presupuesto</text>
<text x="653" y="450.5" font-size="10.2" fill="#22303c">7.4 Controlar los costes</text>
<rect x="20" y="527.0" width="900" height="45.0" fill="#f2f5f8"/>
<rect x="20" y="527.0" width="150" height="45.0" fill="#dbe7f3"/>
<text x="95" y="546.5" font-size="11.5" font-weight="700" fill="#1f3a5f" text-anchor="middle">Gestión de la</text>
<text x="95" y="561.5" font-size="11.5" font-weight="700" fill="#1f3a5f" text-anchor="middle">Calidad</text>
<text x="298" y="546.0" font-size="10.2" fill="#22303c">8.1 Planificar la gestión</text>
<text x="298" y="559.5" font-size="10.2" fill="#22303c">de la calidad</text>
<text x="503" y="546.0" font-size="10.2" fill="#22303c">8.2 Gestionar la calidad</text>
<text x="653" y="546.0" font-size="10.2" fill="#22303c">8.3 Controlar la calidad</text>
<rect x="20" y="572.0" width="900" height="77.0" fill="#ffffff"/>
<rect x="20" y="572.0" width="150" height="77.0" fill="#dbe7f3"/>
<text x="95" y="607.5" font-size="11.5" font-weight="700" fill="#1f3a5f" text-anchor="middle">Gestión de los</text>
<text x="95" y="622.5" font-size="11.5" font-weight="700" fill="#1f3a5f" text-anchor="middle">Recursos</text>
<text x="298" y="591.0" font-size="10.2" fill="#22303c">9.1 Planificar la gestión</text>
<text x="298" y="604.5" font-size="10.2" fill="#22303c">de recursos</text>
<text x="298" y="623.0" font-size="10.2" fill="#22303c">9.2 Estimar los recursos</text>
<text x="298" y="636.5" font-size="10.2" fill="#22303c">de las actividades</text>
<text x="503" y="591.0" font-size="10.2" fill="#22303c">9.3 Adquirir recursos</text>
<text x="503" y="609.5" font-size="10.2" fill="#22303c">9.4 Desarrollar el equipo</text>
<text x="503" y="628.0" font-size="10.2" fill="#22303c">9.5 Dirigir al equipo</text>
<text x="653" y="591.0" font-size="10.2" fill="#22303c">9.6 Controlar los recursos</text>
<rect x="20" y="649.0" width="900" height="45.0" fill="#f2f5f8"/>
<rect x="20" y="649.0" width="150" height="45.0" fill="#dbe7f3"/>
<text x="95" y="668.5" font-size="11.5" font-weight="700" fill="#1f3a5f" text-anchor="middle">Gestión de las</text>
<text x="95" y="683.5" font-size="11.5" font-weight="700" fill="#1f3a5f" text-anchor="middle">Comunicaciones</text>
<text x="298" y="668.0" font-size="10.2" fill="#22303c">10.1 Planificar la gestión</text>
<text x="298" y="681.5" font-size="10.2" fill="#22303c">de las comunicaciones</text>
<text x="503" y="668.0" font-size="10.2" fill="#22303c">10.2 Gestionar las</text>
<text x="503" y="681.5" font-size="10.2" fill="#22303c">comunicaciones</text>
<text x="653" y="668.0" font-size="10.2" fill="#22303c">10.3 Monitorizar las</text>
<text x="653" y="681.5" font-size="10.2" fill="#22303c">comunicaciones</text>
<rect x="20" y="694.0" width="900" height="132.5" fill="#ffffff"/>
<rect x="20" y="694.0" width="150" height="132.5" fill="#dbe7f3"/>
<text x="95" y="757.25" font-size="11.5" font-weight="700" fill="#1f3a5f" text-anchor="middle">Gestión de los</text>
<text x="95" y="772.25" font-size="11.5" font-weight="700" fill="#1f3a5f" text-anchor="middle">Riesgos</text>
<text x="298" y="713.0" font-size="10.2" fill="#22303c">11.1 Planificar la gestión</text>
<text x="298" y="726.5" font-size="10.2" fill="#22303c">de riesgos</text>
<text x="298" y="745.0" font-size="10.2" fill="#22303c">11.2 Identificar los riesgos</text>
<text x="298" y="763.5" font-size="10.2" fill="#22303c">11.3 Análisis cualitativo</text>
<text x="298" y="782.0" font-size="10.2" fill="#22303c">11.4 Análisis cuantitativo</text>
<text x="298" y="800.5" font-size="10.2" fill="#22303c">11.5 Planificar las</text>
<text x="298" y="814.0" font-size="10.2" fill="#22303c">respuestas</text>
<text x="503" y="713.0" font-size="10.2" fill="#22303c">11.6 Implementar las</text>
<text x="503" y="726.5" font-size="10.2" fill="#22303c">respuestas</text>
<text x="653" y="713.0" font-size="10.2" fill="#22303c">11.7 Monitorizar los</text>
<text x="653" y="726.5" font-size="10.2" fill="#22303c">riesgos</text>
<rect x="20" y="826.5" width="900" height="45.0" fill="#f2f5f8"/>
<rect x="20" y="826.5" width="150" height="45.0" fill="#dbe7f3"/>
<text x="95" y="846.0" font-size="11.5" font-weight="700" fill="#1f3a5f" text-anchor="middle">Gestión de las</text>
<text x="95" y="861.0" font-size="11.5" font-weight="700" fill="#1f3a5f" text-anchor="middle">Adquisiciones</text>
<text x="298" y="845.5" font-size="10.2" fill="#22303c">12.1 Planificar la gestión</text>
<text x="298" y="859.0" font-size="10.2" fill="#22303c">de las adquisiciones</text>
<text x="503" y="845.5" font-size="10.2" fill="#22303c">12.2 Efectuar las</text>
<text x="503" y="859.0" font-size="10.2" fill="#22303c">adquisiciones</text>
<text x="653" y="845.5" font-size="10.2" fill="#22303c">12.3 Controlar las</text>
<text x="653" y="859.0" font-size="10.2" fill="#22303c">adquisiciones</text>
<rect x="20" y="871.5" width="900" height="45.0" fill="#ffffff"/>
<rect x="20" y="871.5" width="150" height="45.0" fill="#dbe7f3"/>
<text x="95" y="891.0" font-size="11.5" font-weight="700" fill="#1f3a5f" text-anchor="middle">Gestión de los</text>
<text x="95" y="906.0" font-size="11.5" font-weight="700" fill="#1f3a5f" text-anchor="middle">Interesados</text>
<text x="178" y="890.5" font-size="10.2" fill="#22303c">13.1 Identificar a los</text>
<text x="178" y="904.0" font-size="10.2" fill="#22303c">interesados</text>
<text x="298" y="890.5" font-size="10.2" fill="#22303c">13.2 Planificar el</text>
<text x="298" y="904.0" font-size="10.2" fill="#22303c">involucramiento</text>
<text x="503" y="890.5" font-size="10.2" fill="#22303c">13.3 Gestionar la</text>
<text x="503" y="904.0" font-size="10.2" fill="#22303c">participación</text>
<text x="653" y="890.5" font-size="10.2" fill="#22303c">13.4 Monitorizar el</text>
<text x="653" y="904.0" font-size="10.2" fill="#22303c">involucramiento</text>
<rect x="20" y="916.5" width="900" height="30" fill="#faeed7"/>
<text x="95.0" y="936.5" font-size="12" font-weight="700" fill="#8a6a1c" text-anchor="middle">49 procesos</text>
<text x="230.0" y="936.5" font-size="12" font-weight="700" fill="#8a6a1c" text-anchor="middle">2</text>
<text x="392.5" y="936.5" font-size="12" font-weight="700" fill="#8a6a1c" text-anchor="middle">24</text>
<text x="570.0" y="936.5" font-size="12" font-weight="700" fill="#8a6a1c" text-anchor="middle">10</text>
<text x="730.0" y="936.5" font-size="12" font-weight="700" fill="#8a6a1c" text-anchor="middle">12</text>
<text x="867.5" y="936.5" font-size="12" font-weight="700" fill="#8a6a1c" text-anchor="middle">1</text>
<g stroke="#9db8cd" stroke-width="1" fill="none">
<rect x="20" y="62" width="900" height="884.5"/>
<line x1="20" y1="62" x2="20" y2="946.5"/>
<line x1="170" y1="62" x2="170" y2="946.5"/>
<line x1="290" y1="62" x2="290" y2="946.5"/>
<line x1="495" y1="62" x2="495" y2="946.5"/>
<line x1="645" y1="62" x2="645" y2="946.5"/>
<line x1="815" y1="62" x2="815" y2="946.5"/>
<line x1="20" y1="108" x2="920" y2="108"/>
<line x1="20" y1="185.0" x2="920" y2="185.0"/>
<line x1="20" y1="285.5" x2="920" y2="285.5"/>
<line x1="20" y1="431.5" x2="920" y2="431.5"/>
<line x1="20" y1="527.0" x2="920" y2="527.0"/>
<line x1="20" y1="572.0" x2="920" y2="572.0"/>
<line x1="20" y1="649.0" x2="920" y2="649.0"/>
<line x1="20" y1="694.0" x2="920" y2="694.0"/>
<line x1="20" y1="826.5" x2="920" y2="826.5"/>
<line x1="20" y1="871.5" x2="920" y2="871.5"/>
<line x1="20" y1="916.5" x2="920" y2="916.5"/>
</g>
<text x="920" y="970.5" font-size="11.5" fill="#8a949e" text-anchor="end">Elaboración propia, a partir de la Guía del PMBOK (6.ª edición).</text>
</svg>